REM DIRINDEX 1\2,1\3,1\4,1\5
REM DIRNAME folder01,folder02,folder03,folder04,folder05
TITLE ""
FILE "CD1Track14.mp3" MP3
  TRACK 01 AUDIO
    TITLE "5:cjc156_1410"
    INDEX 01 00:00:00
  TRACK 02 AUDIO
    TITLE "0:"
    INDEX 01 00:01:28
  TRACK 03 AUDIO
    TITLE "2:cjc156_1411"
    INDEX 01 00:02:30
  TRACK 04 AUDIO
    TITLE "3:cjc156_1412"
    INDEX 01 00:04:31
  TRACK 05 AUDIO
    TITLE "2:cjc156_1413"
    INDEX 01 00:06:35
  TRACK 06 AUDIO
    TITLE "3:cjc156_1414"
    INDEX 01 00:07:56
  TRACK 07 AUDIO
    TITLE "2:cjc156_1415"
    INDEX 01 00:09:18
  TRACK 08 AUDIO
    TITLE "3:cjc156_1416"
    INDEX 01 00:11:11
  TRACK 09 AUDIO
    TITLE "2:cjc156_1417"
    INDEX 01 00:13:20
  TRACK 10 AUDIO
    TITLE "3:cjc156_1418"
    INDEX 01 00:15:46
  TRACK 11 AUDIO
    TITLE "2:cjc156_1419"
    INDEX 01 00:18:07
  TRACK 12 AUDIO
    TITLE "3:cjc156_1420"
    INDEX 01 00:20:36
  TRACK 13 AUDIO
    TITLE "2:cjc156_1421"
    INDEX 01 00:22:56
  TRACK 14 AUDIO
    TITLE "3:cjc156_1422"
    INDEX 01 00:24:41
  TRACK 15 AUDIO
    TITLE "2:cjc156_1423"
    INDEX 01 00:26:30
  TRACK 16 AUDIO
    TITLE "3:cjc156_1424"
    INDEX 01 00:28:02
  TRACK 17 AUDIO
    TITLE "2:cjc156_1425"
    INDEX 01 00:29:56
  TRACK 18 AUDIO
    TITLE "3:cjc156_1426"
    INDEX 01 00:31:27
  TRACK 19 AUDIO
    TITLE "2:cjc156_1427"
    INDEX 01 00:33:03
  TRACK 20 AUDIO
    TITLE "3:cjc156_1428"
    INDEX 01 00:34:42
  TRACK 21 AUDIO
    TITLE "2:cjc156_1429"
    INDEX 01 00:36:19
  TRACK 22 AUDIO
    TITLE "3:cjc156_1430"
    INDEX 01 00:38:53
  TRACK 23 AUDIO
    TITLE "2:cjc156_1431"
    INDEX 01 00:41:22
  TRACK 24 AUDIO
    TITLE "3:cjc156_1432"
    INDEX 01 00:42:74
  TRACK 25 AUDIO
    TITLE "2:cjc156_1433"
    INDEX 01 00:44:67
  TRACK 26 AUDIO
    TITLE "3:cjc156_1434"
    INDEX 01 00:46:06
  TRACK 27 AUDIO
    TITLE "2:cjc156_1435"
    INDEX 01 00:47:19
  TRACK 28 AUDIO
    TITLE "3:cjc156_1436"
    INDEX 01 00:50:07
  TRACK 29 AUDIO
    TITLE "2:cjc156_1437"
    INDEX 01 00:53:04
  TRACK 30 AUDIO
    TITLE "3:cjc156_1438"
    INDEX 01 00:54:27
  TRACK 31 AUDIO
    TITLE "2:cjc156_1439"
    INDEX 01 00:55:50
  TRACK 32 AUDIO
    TITLE "3:cjc156_1440"
    INDEX 01 00:58:38
  TRACK 33 AUDIO
    TITLE "2:cjc156_1441"
    INDEX 01 01:01:33
  TRACK 34 AUDIO
    TITLE "3:cjc156_1442"
    INDEX 01 01:02:71
  TRACK 35 AUDIO
    TITLE "2:cjc156_1443"
    INDEX 01 01:04:41
  TRACK 36 AUDIO
    TITLE "3:cjc156_1444"
    INDEX 01 01:07:47
  TRACK 37 AUDIO
    TITLE "2:cjc156_1445"
    INDEX 01 01:10:63
  TRACK 38 AUDIO
    TITLE "3:cjc156_1446"
    INDEX 01 01:13:12
  TRACK 39 AUDIO
    TITLE "2:cjc156_1447"
    INDEX 01 01:15:48
  TRACK 40 AUDIO
    TITLE "3:cjc156_1448"
    INDEX 01 01:18:53
  TRACK 41 AUDIO
    TITLE "2:cjc156_1449"
    INDEX 01 01:21:65
  TRACK 42 AUDIO
    TITLE "3:cjc156_1450"
    INDEX 01 01:24:26
  TRACK 43 AUDIO
    TITLE "2:cjc156_1451"
    INDEX 01 01:26:70
  TRACK 44 AUDIO
    TITLE "3:cjc156_1452"
    INDEX 01 01:29:07
  TRACK 45 AUDIO
    TITLE "2:cjc156_1453"
    INDEX 01 01:31:20
  TRACK 46 AUDIO
    TITLE "3:cjc156_1454"
    INDEX 01 01:32:74
  TRACK 47 AUDIO
    TITLE "2:cjc156_1455"
    INDEX 01 01:34:59
  TRACK 48 AUDIO
    TITLE "3:cjc156_1456"
    INDEX 01 01:36:47
  TRACK 49 AUDIO
    TITLE "2:cjc156_1457"
    INDEX 01 01:38:38
  TRACK 50 AUDIO
    TITLE "3:cjc156_1458"
    INDEX 01 01:40:29
  TRACK 51 AUDIO
    TITLE "2:cjc156_1459"
    INDEX 01 01:42:30
  TRACK 52 AUDIO
    TITLE "3:cjc156_1460"
    INDEX 01 01:45:28
  TRACK 53 AUDIO
    TITLE "2:cjc156_1461"
    INDEX 01 01:48:36
  TRACK 54 AUDIO
    TITLE "3:cjc156_1462"
    INDEX 01 01:50:68
  TRACK 55 AUDIO
    TITLE "2:cjc156_1463"
    INDEX 01 01:53:37
  TRACK 56 AUDIO
    TITLE "3:cjc156_1464"
    INDEX 01 01:56:08
  TRACK 57 AUDIO
    TITLE "2:cjc156_1465"
    INDEX 01 01:58:66
  TRACK 58 AUDIO
    TITLE "3:cjc156_1466"
    INDEX 01 02:00:47
  TRACK 59 AUDIO
    TITLE "2:cjc156_1467"
    INDEX 01 02:02:38
  TRACK 60 AUDIO
    TITLE "3:cjc156_1468"
    INDEX 01 02:04:31
  TRACK 61 AUDIO
    TITLE "2:cjc156_1469"
    INDEX 01 02:06:30
  TRACK 62 AUDIO
    TITLE "3:cjc156_1470"
    INDEX 01 02:07:35
  TRACK 63 AUDIO
    TITLE "2:cjc156_1471"
    INDEX 01 02:08:50
  TRACK 64 AUDIO
    TITLE "3:cjc156_1472"
    INDEX 01 02:11:45
  TRACK 65 AUDIO
    TITLE "2:cjc156_1473"
    INDEX 01 02:14:43
  TRACK 66 AUDIO
    TITLE "3:cjc156_1474"
    INDEX 01 02:15:70
  TRACK 67 AUDIO
    TITLE "2:cjc156_1475"
    INDEX 01 02:17:22
  TRACK 68 AUDIO
    TITLE "3:cjc156_1476"
    INDEX 01 02:20:67
  TRACK 69 AUDIO
    TITLE "2:cjc156_1477"
    INDEX 01 02:24:47
  TRACK 70 AUDIO
    TITLE "3:cjc156_1478"
    INDEX 01 02:25:57
  TRACK 71 AUDIO
    TITLE "2:cjc156_1479"
    INDEX 01 02:26:68
  TRACK 72 AUDIO
    TITLE "3:cjc156_1480"
    INDEX 01 02:28:02
  TRACK 73 AUDIO
    TITLE "2:cjc156_1481"
    INDEX 01 02:29:13
  TRACK 74 AUDIO
    TITLE "3:cjc156_1482"
    INDEX 01 02:31:69
  TRACK 75 AUDIO
    TITLE "2:cjc156_1483"
    INDEX 01 02:34:56
  TRACK 76 AUDIO
    TITLE "3:cjc156_1484"
    INDEX 01 02:36:19
  TRACK 77 AUDIO
    TITLE "2:cjc156_1485"
    INDEX 01 02:37:66
  TRACK 78 AUDIO
    TITLE "3:cjc156_1486"
    INDEX 01 02:40:03
  TRACK 79 AUDIO
    TITLE "2:cjc156_1487"
    INDEX 01 02:42:24
  TRACK 80 AUDIO
    TITLE "3:cjc156_1488"
    INDEX 01 02:43:41
  TRACK 81 AUDIO
    TITLE "2:cjc156_1489"
    INDEX 01 02:44:68
  TRACK 82 AUDIO
    TITLE "3:cjc156_1490"
    INDEX 01 02:47:70
  TRACK 83 AUDIO
    TITLE "2:cjc156_1491"
    INDEX 01 02:51:01
  TRACK 84 AUDIO
    TITLE "3:cjc156_1492"
    INDEX 01 02:53:14
  TRACK 85 AUDIO
    TITLE "2:cjc156_1493"
    INDEX 01 02:55:27
  TRACK 86 AUDIO
    TITLE "3:cjc156_1494"
    INDEX 01 02:56:65
  TRACK 87 AUDIO
    TITLE "2:cjc156_1495"
    INDEX 01 02:58:39
  TRACK 88 AUDIO
    TITLE "3:cjc156_1496"
    INDEX 01 03:00:16
  TRACK 89 AUDIO
    TITLE "2:cjc156_1497"
    INDEX 01 03:02:07
  TRACK 90 AUDIO
    TITLE "3:cjc156_1498"
    INDEX 01 03:04:24
  TRACK 91 AUDIO
    TITLE "2:cjc156_1499"
    INDEX 01 03:06:44
  TRACK 92 AUDIO
    TITLE "3:cjc156_1500"
    INDEX 01 03:07:47
  TRACK 93 AUDIO
    TITLE "2:cjc156_1501"
    INDEX 01 03:08:60
  TRACK 94 AUDIO
    TITLE "3:cjc156_1502"
    INDEX 01 03:10:61
  TRACK 95 AUDIO
    TITLE "2:cjc156_1503"
    INDEX 01 03:12:70
  TRACK 96 AUDIO
    TITLE "3:cjc156_1504"
    INDEX 01 03:14:47
  TRACK 97 AUDIO
    TITLE "2:cjc156_1505"
    INDEX 01 03:16:33
  TRACK 98 AUDIO
    TITLE "3:cjc156_1506"
    INDEX 01 03:19:11
  TRACK 99 AUDIO
    TITLE "2:cjc156_1507"
    INDEX 01 03:21:73
  TRACK 100 AUDIO
    TITLE "3:cjc156_1508"
    INDEX 01 03:24:16
  TRACK 101 AUDIO
    TITLE "2:cjc156_1509"
    INDEX 01 03:26:43
  TRACK 102 AUDIO
    TITLE "3:cjc156_1510"
    INDEX 01 03:27:72
  TRACK 103 AUDIO
    TITLE "2:cjc156_1511"
    INDEX 01 03:29:33
  TRACK 104 AUDIO
    TITLE "3:cjc156_1512"
    INDEX 01 03:31:05
  TRACK 105 AUDIO
    TITLE "2:cjc156_1513"
    INDEX 01 03:32:63
  TRACK 106 AUDIO
    TITLE "3:cjc156_1514"
    INDEX 01 03:34:07
  TRACK 107 AUDIO
    TITLE "2:cjc156_1515"
    INDEX 01 03:35:32
  TRACK 108 AUDIO
    TITLE "3:cjc156_1516"
    INDEX 01 03:38:05
  TRACK 109 AUDIO
    TITLE "2:cjc156_1517"
    INDEX 01 03:40:59
  TRACK 110 AUDIO
    TITLE "3:cjc156_1518"
    INDEX 01 03:42:06
  TRACK 111 AUDIO
    TITLE "2:cjc156_1519"
    INDEX 01 03:43:47
  TRACK 112 AUDIO
    TITLE "3:cjc156_1520"
    INDEX 01 03:44:33
  TRACK 113 AUDIO
    TITLE "2:cjc156_1521"
    INDEX 01 03:45:28
  TRACK 114 AUDIO
    TITLE "3:cjc156_1522"
    INDEX 01 03:47:31
  TRACK 115 AUDIO
    TITLE "2:cjc156_1523"
    INDEX 01 03:49:46
  TRACK 116 AUDIO
    TITLE "3:cjc156_1524"
    INDEX 01 03:51:29
  TRACK 117 AUDIO
    TITLE "2:cjc156_1525"
    INDEX 01 03:53:26
  TRACK 118 AUDIO
    TITLE "3:cjc156_1526"
    INDEX 01 03:54:47
  TRACK 119 AUDIO
    TITLE "2:cjc156_1527"
    INDEX 01 03:56:14
  TRACK 120 AUDIO
    TITLE "3:cjc156_1528"
    INDEX 01 03:59:48
  TRACK 121 AUDIO
    TITLE "2:cjc156_1529"
    INDEX 01 04:03:20
  TRACK 122 AUDIO
    TITLE "3:cjc156_1530"
    INDEX 01 04:04:57
  TRACK 123 AUDIO
    TITLE "2:cjc156_1531"
    INDEX 01 04:06:29
  TRACK 124 AUDIO
    TITLE "3:cjc156_1532"
    INDEX 01 04:07:73
  TRACK 125 AUDIO
    TITLE "2:cjc156_1533"
    INDEX 01 04:09:50
  TRACK 126 AUDIO
    TITLE "3:cjc156_1534"
    INDEX 01 04:11:34
  TRACK 127 AUDIO
    TITLE "2:cjc156_1535"
    INDEX 01 04:13:19
  TRACK 128 AUDIO
    TITLE "3:cjc156_1536"
    INDEX 01 04:15:61
  TRACK 129 AUDIO
    TITLE "2:cjc156_1537"
    INDEX 01 04:18:32
  TRACK 130 AUDIO
    TITLE "3:cjc156_1538"
    INDEX 01 04:20:31
  TRACK 131 AUDIO
    TITLE "2:cjc156_1539"
    INDEX 01 04:22:28
  TRACK 132 AUDIO
    TITLE "3:cjc156_1540"
    INDEX 01 04:24:48
  TRACK 133 AUDIO
    TITLE "2:cjc156_1541"
    INDEX 01 04:26:68
  TRACK 134 AUDIO
    TITLE "3:cjc156_1542"
    INDEX 01 04:28:65
  TRACK 135 AUDIO
    TITLE "2:cjc156_1543"
    INDEX 01 04:30:68
  TRACK 136 AUDIO
    TITLE "3:cjc156_1544"
    INDEX 01 04:33:00
  TRACK 137 AUDIO
    TITLE "2:cjc156_1545"
    INDEX 01 04:35:11
  TRACK 138 AUDIO
    TITLE "3:cjc156_1546"
    INDEX 01 04:36:53
  TRACK 139 AUDIO
    TITLE "2:cjc156_1547"
    INDEX 01 04:38:27
  TRACK 140 AUDIO
    TITLE "3:cjc156_1548"
    INDEX 01 04:39:10
  TRACK 141 AUDIO
    TITLE "2:cjc156_1549"
    INDEX 01 04:40:08
  TRACK 142 AUDIO
    TITLE "3:cjc156_1550"
    INDEX 01 04:42:17
  TRACK 143 AUDIO
    TITLE "2:cjc156_1551"
    INDEX 01 04:44:19
  TRACK 144 AUDIO
    TITLE "3:cjc156_1552"
    INDEX 01 04:46:18
  TRACK 145 AUDIO
    TITLE "2:cjc156_1553"
    INDEX 01 04:48:21
  TRACK 146 AUDIO
    TITLE "3:cjc156_1554"
    INDEX 01 04:51:04
  TRACK 147 AUDIO
    TITLE "2:cjc156_1555"
    INDEX 01 04:53:65
  TRACK 148 AUDIO
    TITLE "3:cjc156_1556"
    INDEX 01 04:55:25
  TRACK 149 AUDIO
    TITLE "2:cjc156_1557"
    INDEX 01 04:56:68
  TRACK 150 AUDIO
    TITLE "3:cjc156_1558"
    INDEX 01 04:58:35
  TRACK 151 AUDIO
    TITLE "2:cjc156_1559"
    INDEX 01 05:00:11
  TRACK 152 AUDIO
    TITLE "3:cjc156_1560"
    INDEX 01 05:02:31
  TRACK 153 AUDIO
    TITLE "2:cjc156_1561"
    INDEX 01 05:04:51
  TRACK 154 AUDIO
    TITLE "3:cjc156_1562"
    INDEX 01 05:06:46
  TRACK 155 AUDIO
    TITLE "2:cjc156_1563"
    INDEX 01 05:08:51
  TRACK 156 AUDIO
    TITLE "3:cjc156_1564"
    INDEX 01 05:10:54
  TRACK 157 AUDIO
    TITLE "2:cjc156_1565"
    INDEX 01 05:12:65
  TRACK 158 AUDIO
    TITLE "3:cjc156_1566"
    INDEX 01 05:14:05
  TRACK 159 AUDIO
    TITLE "2:cjc156_1567"
    INDEX 01 05:15:32
  TRACK 160 AUDIO
    TITLE "3:cjc156_1568"
    INDEX 01 05:17:19
  TRACK 161 AUDIO
    TITLE "2:cjc156_1569"
    INDEX 01 05:19:20
  TRACK 162 AUDIO
    TITLE "3:cjc156_1570"
    INDEX 01 05:21:19
  TRACK 163 AUDIO
    TITLE "2:cjc156_1571"
    INDEX 01 05:23:17
  TRACK 164 AUDIO
    TITLE "3:cjc156_1572"
    INDEX 01 05:25:12
  TRACK 165 AUDIO
    TITLE "2:cjc156_1573"
    INDEX 01 05:27:19
  TRACK 166 AUDIO
    TITLE "3:cjc156_1574"
    INDEX 01 05:28:46
  TRACK 167 AUDIO
    TITLE "2:cjc156_1575"
    INDEX 01 05:29:73
  TRACK 168 AUDIO
    TITLE "3:cjc156_1576"
    INDEX 01 05:32:24
  TRACK 169 AUDIO
    TITLE "2:cjc156_1577"
    INDEX 01 05:34:60
  TRACK 170 AUDIO
    TITLE "3:cjc156_1578"
    INDEX 01 05:36:48
  TRACK 171 AUDIO
    TITLE "2:cjc156_1579"
    INDEX 01 05:38:41
  TRACK 172 AUDIO
    TITLE "3:cjc156_1580"
    INDEX 01 05:40:45
  TRACK 173 AUDIO
    TITLE "2:cjc156_1581"
    INDEX 01 05:42:60
  TRACK 174 AUDIO
    TITLE "3:cjc156_1582"
    INDEX 01 05:44:31
  TRACK 175 AUDIO
    TITLE "2:cjc156_1583"
    INDEX 01 05:46:17
  TRACK 176 AUDIO
    TITLE "3:cjc156_1584"
    INDEX 01 05:48:12
  TRACK 177 AUDIO
    TITLE "2:cjc156_1585"
    INDEX 01 05:50:12
  TRACK 178 AUDIO
    TITLE "3:cjc156_1586"
    INDEX 01 05:52:27
  TRACK 179 AUDIO
    TITLE "2:cjc156_1587"
    INDEX 01 05:54:47
  TRACK 180 AUDIO
    TITLE "3:cjc156_1588"
    INDEX 01 05:57:26
  TRACK 181 AUDIO
    TITLE "2:cjc156_1589"
    INDEX 01 06:00:17
  TRACK 182 AUDIO
    TITLE "3:cjc156_1590"
    INDEX 01 06:01:28
  TRACK 183 AUDIO
    TITLE "2:cjc156_1591"
    INDEX 01 06:02:49
  TRACK 184 AUDIO
    TITLE "3:cjc156_1592"
    INDEX 01 06:04:38
  TRACK 185 AUDIO
    TITLE "2:cjc156_1593"
    INDEX 01 06:06:35
  TRACK 186 AUDIO
    TITLE "3:cjc156_1594"
    INDEX 01 06:08:59
  TRACK 187 AUDIO
    TITLE "2:cjc156_1595"
    INDEX 01 06:11:18
  TRACK 188 AUDIO
    TITLE "3:cjc156_1596"
    INDEX 01 06:13:35
  TRACK 189 AUDIO
    TITLE "2:cjc156_1597"
    INDEX 01 06:15:63
  TRACK 190 AUDIO
    TITLE "3:cjc156_1598"
    INDEX 01 06:17:33
  TRACK 191 AUDIO
    TITLE "2:cjc156_1599"
    INDEX 01 06:19:08
  TRACK 192 AUDIO
    TITLE "3:cjc156_1600"
    INDEX 01 06:21:64
  TRACK 193 AUDIO
    TITLE "2:cjc156_1601"
    INDEX 01 06:24:56
  TRACK 194 AUDIO
    TITLE "3:cjc156_1602"
    INDEX 01 06:26:16
  TRACK 195 AUDIO
    TITLE "2:cjc156_1603"
    INDEX 01 06:27:61
  TRACK 196 AUDIO
    TITLE "3:cjc156_1604"
    INDEX 01 06:31:03
  TRACK 197 AUDIO
    TITLE "2:cjc156_1605"
    INDEX 01 06:34:33
  TRACK 198 AUDIO
    TITLE "3:cjc156_1606"
    INDEX 01 06:36:09
  TRACK 199 AUDIO
    TITLE "2:cjc156_1607"
    INDEX 01 06:37:65
  TRACK 200 AUDIO
    TITLE "3:cjc156_1608"
    INDEX 01 06:39:17
  TRACK 201 AUDIO
    TITLE "2:cjc156_1609"
    INDEX 01 06:40:53
  TRACK 202 AUDIO
    TITLE "3:cjc156_1610"
    INDEX 01 06:42:54
  TRACK 203 AUDIO
    TITLE "2:cjc156_1611"
    INDEX 01 06:44:63
  TRACK 204 AUDIO
    TITLE "3:cjc156_1612"
    INDEX 01 06:46:07
  TRACK 205 AUDIO
    TITLE "2:cjc156_1613"
    INDEX 01 06:47:38
  TRACK 206 AUDIO
    TITLE "3:cjc156_1614"
    INDEX 01 06:49:15
  TRACK 207 AUDIO
    TITLE "2:cjc156_1615"
    INDEX 01 06:51:00
  TRACK 208 AUDIO
    TITLE "3:cjc156_1616"
    INDEX 01 06:52:59
  TRACK 209 AUDIO
    TITLE "2:cjc156_1617"
    INDEX 01 06:54:54
  TRACK 210 AUDIO
    TITLE "3:cjc156_1618"
    INDEX 01 06:56:35
  TRACK 211 AUDIO
    TITLE "2:cjc156_1619"
    INDEX 01 06:58:26
  TRACK 212 AUDIO
    TITLE "3:cjc156_1620"
    INDEX 01 07:01:10
  TRACK 213 AUDIO
    TITLE "2:cjc156_1621"
    INDEX 01 07:03:74
  TRACK 214 AUDIO
    TITLE "3:cjc156_1622"
    INDEX 01 07:05:12
  TRACK 215 AUDIO
    TITLE "2:cjc156_1623"
    INDEX 01 07:06:33
  TRACK 216 AUDIO
    TITLE "3:cjc156_1624"
    INDEX 01 07:09:00
  TRACK 217 AUDIO
    TITLE "2:cjc156_1625"
    INDEX 01 07:11:48
  TRACK 218 AUDIO
    TITLE "3:cjc156_1626"
    INDEX 01 07:13:04
  TRACK 219 AUDIO
    TITLE "2:cjc156_1627"
    INDEX 01 07:14:37
  TRACK 220 AUDIO
    TITLE "3:cjc156_1628"
    INDEX 01 07:16:28
  TRACK 221 AUDIO
    TITLE "2:cjc156_1629"
    INDEX 01 07:18:27
  TRACK 222 AUDIO
    TITLE "3:cjc156_1630"
    INDEX 01 07:20:00
  TRACK 223 AUDIO
    TITLE "2:cjc156_1631"
    INDEX 01 07:21:60
  TRACK 224 AUDIO
    TITLE "3:cjc156_1632"
    INDEX 01 07:22:48
  TRACK 225 AUDIO
    TITLE "2:cjc156_1633"
    INDEX 01 07:23:47
  TRACK 226 AUDIO
    TITLE "3:cjc156_1634"
    INDEX 01 07:25:34
  TRACK 227 AUDIO
    TITLE "2:cjc156_1635"
    INDEX 01 07:27:37
  TRACK 228 AUDIO
    TITLE "3:cjc156_1636"
    INDEX 01 07:29:11
  TRACK 229 AUDIO
    TITLE "2:cjc156_1637"
    INDEX 01 07:30:67
  TRACK 230 AUDIO
    TITLE "3:cjc156_1638"
    INDEX 01 07:34:22
  TRACK 231 AUDIO
    TITLE "2:cjc156_1639"
    INDEX 01 07:37:57
  TRACK 232 AUDIO
    TITLE "3:cjc156_1640"
    INDEX 01 07:40:11
  TRACK 233 AUDIO
    TITLE "2:cjc156_1641"
    INDEX 01 07:42:37
  TRACK 234 AUDIO
    TITLE "3:cjc156_1642"
    INDEX 01 07:43:74
  TRACK 235 AUDIO
    TITLE "2:cjc156_1643"
    INDEX 01 07:45:37
  TRACK 236 AUDIO
    TITLE "3:cjc156_1644"
    INDEX 01 07:48:10
  TRACK 237 AUDIO
    TITLE "2:cjc156_1645"
    INDEX 01 07:50:58
  TRACK 238 AUDIO
    TITLE "3:cjc156_1646"
    INDEX 01 07:53:48
  TRACK 239 AUDIO
    TITLE "2:cjc156_1647"
    INDEX 01 07:56:43
  TRACK 240 AUDIO
    TITLE "3:cjc156_1648"
    INDEX 01 07:59:26
  TRACK 241 AUDIO
    TITLE "2:cjc156_1649"
    INDEX 01 08:02:10
  TRACK 242 AUDIO
    TITLE "3:cjc156_1650"
    INDEX 01 08:03:64
  TRACK 243 AUDIO
    TITLE "2:cjc156_1651"
    INDEX 01 08:05:56
  TRACK 244 AUDIO
    TITLE "3:cjc156_1652"
    INDEX 01 08:08:03
  TRACK 245 AUDIO
    TITLE "2:cjc156_1653"
    INDEX 01 08:10:39
  TRACK 246 AUDIO
    TITLE "3:cjc156_1654"
    INDEX 01 08:12:60
  TRACK 247 AUDIO
    TITLE "2:cjc156_1655"
    INDEX 01 08:15:17
  TRACK 248 AUDIO
    TITLE "3:cjc156_1656"
    INDEX 01 08:16:73
  TRACK 249 AUDIO
    TITLE "2:cjc156_1657"
    INDEX 01 08:18:68
  TRACK 250 AUDIO
    TITLE "3:cjc156_1658"
    INDEX 01 08:22:11
  TRACK 251 AUDIO
    TITLE "2:cjc156_1659"
    INDEX 01 08:25:41
  TRACK 252 AUDIO
    TITLE "3:cjc156_1660"
    INDEX 01 08:26:54
  TRACK 253 AUDIO
    TITLE "2:cjc156_1661"
    INDEX 01 08:28:00
  TRACK 254 AUDIO
    TITLE "3:cjc156_1662"
    INDEX 01 08:29:60
  TRACK 255 AUDIO
    TITLE "2:cjc156_1663"
    INDEX 01 08:31:63
  TRACK 256 AUDIO
    TITLE "3:cjc156_1664"
    INDEX 01 08:33:19
  TRACK 257 AUDIO
    TITLE "2:cjc156_1665"
    INDEX 01 08:34:51
  TRACK 258 AUDIO
    TITLE "3:cjc156_1666"
    INDEX 01 08:35:64
  TRACK 259 AUDIO
    TITLE "2:cjc156_1667"
    INDEX 01 08:37:10
  TRACK 260 AUDIO
    TITLE "3:cjc156_1668"
    INDEX 01 08:39:31
  TRACK 261 AUDIO
    TITLE "2:cjc156_1669"
    INDEX 01 08:41:63
  TRACK 262 AUDIO
    TITLE "3:cjc156_1670"
    INDEX 01 08:44:11
  TRACK 263 AUDIO
    TITLE "2:cjc156_1671"
    INDEX 01 08:46:41
  TRACK 264 AUDIO
    TITLE "3:cjc156_1672"
    INDEX 01 08:48:38
  TRACK 265 AUDIO
    TITLE "2:cjc156_1673"
    INDEX 01 08:50:41
  TRACK 266 AUDIO
    TITLE "3:cjc156_1674"
    INDEX 01 08:51:65
  TRACK 267 AUDIO
    TITLE "0:"
    INDEX 01 08:53:21
